<mxfile host="Electron" agent="Mozilla/5.0 (X11; Linux x86_64) AppleWebKit/537.36 (KHTML, like Gecko) draw.io/28.1.2 Chrome/138.0.7204.243 Electron/37.4.0 Safari/537.36" version="28.1.2">
  <diagram name="Page-1" id="FCg047ZmniYvs8AbTUPz">
    <mxGraphModel dx="813" dy="499" grid="1" gridSize="10" guides="1" tooltips="1" connect="1" arrows="1" fold="1" page="1" pageScale="1" pageWidth="850" pageHeight="1100" math="0" shadow="0">
      <root>
        <mxCell id="0" />
        <mxCell id="1" parent="0" />
        <mxCell id="-tcE8rUrM36b7BvTMz05-39" value="" style="group" vertex="1" connectable="0" parent="1">
          <mxGeometry x="80" y="260" width="640" height="80" as="geometry" />
        </mxCell>
        <mxCell id="-tcE8rUrM36b7BvTMz05-16" value="" style="rounded=1;whiteSpace=wrap;html=1;fillColor=#FFCCCC;" vertex="1" parent="-tcE8rUrM36b7BvTMz05-39">
          <mxGeometry width="640" height="80" as="geometry" />
        </mxCell>
        <mxCell id="-tcE8rUrM36b7BvTMz05-17" value="Programs" style="text;html=1;align=center;verticalAlign=middle;whiteSpace=wrap;rounded=0;" vertex="1" parent="-tcE8rUrM36b7BvTMz05-39">
          <mxGeometry x="10" width="60" height="30" as="geometry" />
        </mxCell>
        <mxCell id="-tcE8rUrM36b7BvTMz05-19" value="Prog Code" style="rounded=1;whiteSpace=wrap;html=1;align=center;fontStyle=0" vertex="1" parent="-tcE8rUrM36b7BvTMz05-39">
          <mxGeometry x="245" y="30" width="70" height="20" as="geometry" />
        </mxCell>
        <mxCell id="-tcE8rUrM36b7BvTMz05-38" value="" style="group" vertex="1" connectable="0" parent="1">
          <mxGeometry x="80" y="420" width="640" height="80" as="geometry" />
        </mxCell>
        <mxCell id="-tcE8rUrM36b7BvTMz05-2" value="" style="rounded=1;whiteSpace=wrap;html=1;fillColor=#B3B3B3;" vertex="1" parent="-tcE8rUrM36b7BvTMz05-38">
          <mxGeometry width="640" height="80" as="geometry" />
        </mxCell>
        <mxCell id="-tcE8rUrM36b7BvTMz05-4" value="Kernel" style="text;html=1;align=center;verticalAlign=middle;whiteSpace=wrap;rounded=0;" vertex="1" parent="-tcE8rUrM36b7BvTMz05-38">
          <mxGeometry width="60" height="30" as="geometry" />
        </mxCell>
        <mxCell id="-tcE8rUrM36b7BvTMz05-5" value="API" style="rounded=1;whiteSpace=wrap;html=1;" vertex="1" parent="-tcE8rUrM36b7BvTMz05-38">
          <mxGeometry x="400" y="20" width="40" height="20" as="geometry" />
        </mxCell>
        <mxCell id="-tcE8rUrM36b7BvTMz05-49" style="edgeStyle=orthogonalEdgeStyle;rounded=0;orthogonalLoop=1;jettySize=auto;html=1;exitX=0;exitY=0.25;exitDx=0;exitDy=0;entryX=1;entryY=0.5;entryDx=0;entryDy=0;strokeColor=#000099;" edge="1" parent="1" source="-tcE8rUrM36b7BvTMz05-3" target="-tcE8rUrM36b7BvTMz05-5">
          <mxGeometry relative="1" as="geometry" />
        </mxCell>
        <mxCell id="-tcE8rUrM36b7BvTMz05-51" style="edgeStyle=orthogonalEdgeStyle;rounded=0;orthogonalLoop=1;jettySize=auto;html=1;exitX=0;exitY=0.75;exitDx=0;exitDy=0;entryX=1;entryY=0.75;entryDx=0;entryDy=0;" edge="1" parent="1" source="-tcE8rUrM36b7BvTMz05-3" target="-tcE8rUrM36b7BvTMz05-12">
          <mxGeometry relative="1" as="geometry">
            <Array as="points">
              <mxPoint x="550" y="475" />
            </Array>
          </mxGeometry>
        </mxCell>
        <mxCell id="-tcE8rUrM36b7BvTMz05-3" value="Interrupt" style="rounded=1;whiteSpace=wrap;html=1;fontStyle=1" vertex="1" parent="1">
          <mxGeometry x="550" y="440" width="80" height="40" as="geometry" />
        </mxCell>
        <mxCell id="-tcE8rUrM36b7BvTMz05-30" style="edgeStyle=orthogonalEdgeStyle;rounded=0;orthogonalLoop=1;jettySize=auto;html=1;exitX=0;exitY=0.5;exitDx=0;exitDy=0;entryX=1;entryY=0.5;entryDx=0;entryDy=0;" edge="1" parent="1" source="-tcE8rUrM36b7BvTMz05-12" target="-tcE8rUrM36b7BvTMz05-14">
          <mxGeometry relative="1" as="geometry" />
        </mxCell>
        <mxCell id="-tcE8rUrM36b7BvTMz05-34" style="edgeStyle=orthogonalEdgeStyle;rounded=0;orthogonalLoop=1;jettySize=auto;html=1;exitX=0.5;exitY=0;exitDx=0;exitDy=0;entryX=0.5;entryY=1;entryDx=0;entryDy=0;strokeWidth=2;" edge="1" parent="1" source="-tcE8rUrM36b7BvTMz05-12" target="-tcE8rUrM36b7BvTMz05-22">
          <mxGeometry relative="1" as="geometry" />
        </mxCell>
        <mxCell id="-tcE8rUrM36b7BvTMz05-52" style="edgeStyle=orthogonalEdgeStyle;rounded=0;orthogonalLoop=1;jettySize=auto;html=1;exitX=0.5;exitY=1;exitDx=0;exitDy=0;entryX=0.25;entryY=0;entryDx=0;entryDy=0;strokeWidth=4;" edge="1" parent="1" source="-tcE8rUrM36b7BvTMz05-12" target="-tcE8rUrM36b7BvTMz05-40">
          <mxGeometry relative="1" as="geometry" />
        </mxCell>
        <mxCell id="-tcE8rUrM36b7BvTMz05-12" value="Driver" style="rounded=1;whiteSpace=wrap;html=1;" vertex="1" parent="1">
          <mxGeometry x="400" y="460" width="40" height="20" as="geometry" />
        </mxCell>
        <mxCell id="-tcE8rUrM36b7BvTMz05-14" value="Action" style="rounded=1;whiteSpace=wrap;html=1;fontStyle=1" vertex="1" parent="1">
          <mxGeometry x="270" y="450" width="80" height="40" as="geometry" />
        </mxCell>
        <mxCell id="-tcE8rUrM36b7BvTMz05-18" style="edgeStyle=orthogonalEdgeStyle;rounded=0;orthogonalLoop=1;jettySize=auto;html=1;exitX=0.5;exitY=1;exitDx=0;exitDy=0;entryX=0.5;entryY=0;entryDx=0;entryDy=0;strokeWidth=4;strokeColor=#000099;" edge="1" parent="1" source="-tcE8rUrM36b7BvTMz05-6" target="-tcE8rUrM36b7BvTMz05-3">
          <mxGeometry relative="1" as="geometry" />
        </mxCell>
        <mxCell id="-tcE8rUrM36b7BvTMz05-6" value="&lt;font&gt;&lt;b&gt;Libs&lt;/b&gt;&lt;/font&gt;&lt;font style=&quot;font-size: 8px;&quot;&gt;: string.c, asm.c, io.c&lt;/font&gt;" style="rounded=1;whiteSpace=wrap;html=1;align=center;fontStyle=0" vertex="1" parent="1">
          <mxGeometry x="550" y="280" width="80" height="40" as="geometry" />
        </mxCell>
        <mxCell id="-tcE8rUrM36b7BvTMz05-20" style="edgeStyle=orthogonalEdgeStyle;rounded=0;orthogonalLoop=1;jettySize=auto;html=1;exitX=1;exitY=0.5;exitDx=0;exitDy=0;entryX=0;entryY=0.5;entryDx=0;entryDy=0;strokeColor=#000099;" edge="1" parent="1" source="-tcE8rUrM36b7BvTMz05-19" target="-tcE8rUrM36b7BvTMz05-6">
          <mxGeometry relative="1" as="geometry" />
        </mxCell>
        <mxCell id="-tcE8rUrM36b7BvTMz05-31" style="edgeStyle=orthogonalEdgeStyle;rounded=0;orthogonalLoop=1;jettySize=auto;html=1;exitX=0.5;exitY=1;exitDx=0;exitDy=0;entryX=0.5;entryY=0;entryDx=0;entryDy=0;strokeWidth=2;strokeColor=#000099;" edge="1" parent="1" source="-tcE8rUrM36b7BvTMz05-19" target="-tcE8rUrM36b7BvTMz05-22">
          <mxGeometry relative="1" as="geometry" />
        </mxCell>
        <mxCell id="-tcE8rUrM36b7BvTMz05-22" value="Special Memory: &lt;br&gt;&lt;font style=&quot;font-size: 8px; font-weight: normal;&quot;&gt;x, y, buffers&lt;/font&gt;" style="rounded=1;whiteSpace=wrap;html=1;fontStyle=1;align=center;fillColor=#CCFFCC;" vertex="1" parent="1">
          <mxGeometry x="300" y="360" width="120" height="40" as="geometry" />
        </mxCell>
        <mxCell id="-tcE8rUrM36b7BvTMz05-48" style="edgeStyle=orthogonalEdgeStyle;rounded=0;orthogonalLoop=1;jettySize=auto;html=1;exitX=0.5;exitY=0;exitDx=0;exitDy=0;entryX=0.5;entryY=1;entryDx=0;entryDy=0;strokeWidth=4;" edge="1" parent="1" source="-tcE8rUrM36b7BvTMz05-40" target="-tcE8rUrM36b7BvTMz05-3">
          <mxGeometry relative="1" as="geometry" />
        </mxCell>
        <mxCell id="-tcE8rUrM36b7BvTMz05-40" value="" style="rounded=1;whiteSpace=wrap;html=1;fillColor=#999999;" vertex="1" parent="1">
          <mxGeometry x="460" y="560" width="260" height="60" as="geometry" />
        </mxCell>
        <mxCell id="-tcE8rUrM36b7BvTMz05-41" value="Hardware" style="text;html=1;align=center;verticalAlign=middle;resizable=0;points=[];autosize=1;fontColor=#000000;fontStyle=1" vertex="1" parent="1">
          <mxGeometry x="460" y="560" width="80" height="30" as="geometry" />
        </mxCell>
        <mxCell id="-tcE8rUrM36b7BvTMz05-50" style="edgeStyle=orthogonalEdgeStyle;rounded=0;orthogonalLoop=1;jettySize=auto;html=1;exitX=0;exitY=0.5;exitDx=0;exitDy=0;entryX=1;entryY=0.25;entryDx=0;entryDy=0;strokeColor=#000099;" edge="1" parent="1" source="-tcE8rUrM36b7BvTMz05-5" target="-tcE8rUrM36b7BvTMz05-12">
          <mxGeometry relative="1" as="geometry" />
        </mxCell>
        <mxCell id="-tcE8rUrM36b7BvTMz05-57" value="" style="rounded=1;whiteSpace=wrap;html=1;fontStyle=1;align=center;fillColor=#CCFFCC;" vertex="1" parent="1">
          <mxGeometry x="1000" y="260" width="440" height="220" as="geometry" />
        </mxCell>
        <mxCell id="-tcE8rUrM36b7BvTMz05-58" value="Special memory: 0x5000" style="text;html=1;align=center;verticalAlign=middle;whiteSpace=wrap;rounded=0;" vertex="1" parent="1">
          <mxGeometry x="1010" y="260" width="140" height="30" as="geometry" />
        </mxCell>
        <mxCell id="-tcE8rUrM36b7BvTMz05-63" value="" style="group" vertex="1" connectable="0" parent="1">
          <mxGeometry x="1030" y="300" width="130" height="120" as="geometry" />
        </mxCell>
        <mxCell id="-tcE8rUrM36b7BvTMz05-61" value="" style="rounded=1;whiteSpace=wrap;html=1;" vertex="1" parent="-tcE8rUrM36b7BvTMz05-63">
          <mxGeometry width="130" height="120" as="geometry" />
        </mxCell>
        <mxCell id="-tcE8rUrM36b7BvTMz05-59" value="keyboard buffer" style="rounded=1;whiteSpace=wrap;html=1;" vertex="1" parent="-tcE8rUrM36b7BvTMz05-63">
          <mxGeometry x="5" y="30" width="120" height="20" as="geometry" />
        </mxCell>
        <mxCell id="-tcE8rUrM36b7BvTMz05-60" value="keyboard buffer ptr" style="rounded=1;whiteSpace=wrap;html=1;" vertex="1" parent="-tcE8rUrM36b7BvTMz05-63">
          <mxGeometry x="5" y="60" width="120" height="20" as="geometry" />
        </mxCell>
        <mxCell id="-tcE8rUrM36b7BvTMz05-62" value="keyboard" style="text;html=1;align=center;verticalAlign=middle;whiteSpace=wrap;rounded=0;" vertex="1" parent="-tcE8rUrM36b7BvTMz05-63">
          <mxGeometry x="5" width="120" height="30" as="geometry" />
        </mxCell>
        <mxCell id="-tcE8rUrM36b7BvTMz05-70" value="&lt;font style=&quot;font-size: 11px;&quot;&gt;keyboard shift pressed&lt;/font&gt;" style="rounded=1;whiteSpace=wrap;html=1;" vertex="1" parent="-tcE8rUrM36b7BvTMz05-63">
          <mxGeometry x="5" y="90" width="120" height="20" as="geometry" />
        </mxCell>
        <mxCell id="-tcE8rUrM36b7BvTMz05-65" value="" style="group" vertex="1" connectable="0" parent="1">
          <mxGeometry x="1180" y="300" width="130" height="90" as="geometry" />
        </mxCell>
        <mxCell id="-tcE8rUrM36b7BvTMz05-66" value="" style="rounded=1;whiteSpace=wrap;html=1;" vertex="1" parent="-tcE8rUrM36b7BvTMz05-65">
          <mxGeometry width="130" height="90" as="geometry" />
        </mxCell>
        <mxCell id="-tcE8rUrM36b7BvTMz05-67" value="cursor position x" style="rounded=1;whiteSpace=wrap;html=1;" vertex="1" parent="-tcE8rUrM36b7BvTMz05-65">
          <mxGeometry x="5" y="30" width="120" height="20" as="geometry" />
        </mxCell>
        <mxCell id="-tcE8rUrM36b7BvTMz05-68" value="cursor position y" style="rounded=1;whiteSpace=wrap;html=1;" vertex="1" parent="-tcE8rUrM36b7BvTMz05-65">
          <mxGeometry x="5" y="60" width="120" height="20" as="geometry" />
        </mxCell>
        <mxCell id="-tcE8rUrM36b7BvTMz05-69" value="display" style="text;html=1;align=center;verticalAlign=middle;whiteSpace=wrap;rounded=0;" vertex="1" parent="-tcE8rUrM36b7BvTMz05-65">
          <mxGeometry x="5" width="120" height="30" as="geometry" />
        </mxCell>
      </root>
    </mxGraphModel>
  </diagram>
</mxfile>
